<svg xmlns="http://www.w3.org/2000/svg" xmlns:xlink="http://www.w3.org/1999/xlink" viewBox="0 0 500 500"><defs><style>.cls-1{fill:#70a0ad;}.cls-2{fill:#5893a3;}.cls-3{fill:#1b6175;}.cls-4{fill:#fff;}.cls-5{font-size:62.65px;}.cls-26,.cls-5{fill:#283247;}.cls-5,.cls-6{font-family:BebasNeueBold, Bebas Neue;font-weight:700;}.cls-6{font-size:81.51px;fill:#3e4d6e;}.cls-7{fill:#555457;}.cls-8{fill:#414042;}.cls-9{fill:#808285;}.cls-10{fill:#939598;}.cls-11{fill:#6d6e71;}.cls-12{fill:#58595b;}.cls-13{fill:#fbbb5a;}.cls-14{fill:#fbcc85;}.cls-15,.cls-16,.cls-17,.cls-22,.cls-23,.cls-24,.cls-29,.cls-32{fill:none;stroke-linecap:round;stroke-linejoin:round;}.cls-15,.cls-17{stroke:#ffe5bd;}.cls-15{stroke-width:5px;}.cls-16,.cls-22{stroke:#fff;}.cls-16,.cls-17{stroke-width:2px;}.cls-18{fill:#eda639;}.cls-19{fill:#c78b30;}.cls-20{fill:#a7a9ac;}.cls-21{fill:#fcb28d;}.cls-22{stroke-width:5.38px;}.cls-23,.cls-24{stroke:#fcb28d;}.cls-23{stroke-width:18.14px;}.cls-24{stroke-width:4.7px;}.cls-25{fill:#133a54;}.cls-27{fill:#736357;}.cls-28{fill:url(#linear-gradient);}.cls-29{stroke:#d8654e;stroke-width:0.34px;}.cls-30{fill:url(#linear-gradient-2);}.cls-31{fill:url(#linear-gradient-3);}.cls-32{stroke:#845d42;stroke-width:0.67px;}.cls-33{fill:#d8654e;}</style><linearGradient id="linear-gradient" x1="-329.01" y1="-415.48" x2="-322.55" y2="-409.01" gradientTransform="translate(400.43 783.64) rotate(10.49)" gradientUnits="userSpaceOnUse"><stop offset="0" stop-color="#d8654e"/><stop offset="0.24" stop-color="#de7259"/><stop offset="0.68" stop-color="#ef9575"/><stop offset="1" stop-color="#fcb28d"/></linearGradient><linearGradient id="linear-gradient-2" x1="-2071.07" y1="215.49" x2="-2070.48" y2="205.91" gradientTransform="matrix(-1, 0.06, 0.06, 1, -1920.32, 217.39)" gradientUnits="userSpaceOnUse"><stop offset="0" stop-color="#d8654e"/><stop offset="0.17" stop-color="#db6c54"/><stop offset="0.41" stop-color="#e58064"/><stop offset="0.7" stop-color="#f4a07e"/><stop offset="0.84" stop-color="#fcb28d"/></linearGradient><linearGradient id="linear-gradient-3" x1="-2017.55" y1="530.32" x2="-2020.35" y2="530.99" gradientTransform="matrix(-0.9, -0.43, -0.43, 0.9, -1442.41, -1043.37)" gradientUnits="userSpaceOnUse"><stop offset="0" stop-color="#d8654e"/><stop offset="0.18" stop-color="#e0765c"/><stop offset="0.54" stop-color="#f4a17f"/><stop offset="0.67" stop-color="#fcb28d"/></linearGradient></defs><title>DumbTips</title><g id="BACKGROUND"><rect class="cls-1" width="500" height="500"/><path class="cls-2" d="M500,45V500H33.16q-.49-10.25-.49-20.62c0-240.55,195-435.56,435.56-435.56Q484.27,43.82,500,45Z"/></g><g id="OBJECTS"><path class="cls-3" d="M393.29,430.75H123.23A5.73,5.73,0,0,1,117.5,425h0a5.73,5.73,0,0,1,5.73-5.73H393.29A5.73,5.73,0,0,1,399,425h0A5.73,5.73,0,0,1,393.29,430.75Z"/><path class="cls-3" d="M357.75,440.5h-66.2a5.73,5.73,0,0,1-5.73-5.73h0a5.73,5.73,0,0,1,5.73-5.73h66.2a5.73,5.73,0,0,1,5.73,5.73h0A5.73,5.73,0,0,1,357.75,440.5Z"/><path class="cls-3" d="M294.43,265.45a95.2,95.2,0,0,1-89.95,49.93,95.07,95.07,0,0,0,126.17-49.93Z"/><circle class="cls-3" cx="324.75" cy="212.89" r="95.07"/><path class="cls-4" d="M288.43,255.4a95.2,95.2,0,0,1-89.95,49.94A95.07,95.07,0,0,0,324.65,255.4Z"/><circle class="cls-4" cx="318.75" cy="202.84" r="95.07"/><text class="cls-5" transform="translate(263.64 194.17)">DUMB</text><text class="cls-6" transform="translate(265.95 261.38)">Tips</text><path class="cls-7" d="M132.58,274.69v3A10.41,10.41,0,0,0,143,288.15h9.78V274.69Z"/><path class="cls-8" d="M152.78,274.69v13.46h9.78A10.41,10.41,0,0,0,173,277.74v-3Z"/><path class="cls-9" d="M152.78,243v32.94h18.65a12.4,12.4,0,0,0,12.4-12.4V243Z"/><path class="cls-10" d="M121.73,243v20.54a12.4,12.4,0,0,0,12.4,12.4h18.65V243Z"/><path class="cls-11" d="M122,246.43a2.09,2.09,0,1,0,0,4.18h30.74v-4.18Z"/><path class="cls-12" d="M183.52,246.43H152.78v4.18h30.74a2.09,2.09,0,1,0,0-4.18Z"/><path class="cls-11" d="M122,254.44a2.09,2.09,0,1,0,0,4.18h30.74v-4.18Z"/><path class="cls-12" d="M183.52,254.44H152.78v4.18h30.74a2.09,2.09,0,1,0,0-4.18Z"/><path class="cls-11" d="M122,262.46a2.09,2.09,0,1,0,0,4.18h30.74v-4.18Z"/><path class="cls-12" d="M183.52,262.46H152.78v4.18h30.74a2.09,2.09,0,1,0,0-4.18Z"/><path class="cls-13" d="M220.47,141.85a67.45,67.45,0,0,1-18.36,46.34,54.16,54.16,0,0,0-15,37v9.62A12.15,12.15,0,0,1,184,243H121.52a12.15,12.15,0,0,1-3.11-8.13v-9.55a53.55,53.55,0,0,0-7.06-26.67,52.19,52.19,0,0,0-7.48-10,67.69,67.69,0,1,1,116.6-46.77Z"/><path class="cls-14" d="M192,114.23a84.5,84.5,0,0,1-80.69,84.41,52.19,52.19,0,0,0-7.48-10A67.69,67.69,0,0,1,186,82.86,84.3,84.3,0,0,1,192,114.23Z"/><line class="cls-15" x1="151.58" y1="67.37" x2="151.58" y2="59.83"/><line class="cls-15" x1="189.17" y1="75.93" x2="194.5" y2="70.6"/><line class="cls-15" x1="114" y1="75.93" x2="108.67" y2="70.6"/><path class="cls-16" d="M124.79,140.28c12.35,13.36,20.76,39.74,20.76,70.1"/><path class="cls-16" d="M178.38,140.28C166,153.64,157.62,180,157.62,210.38"/><path class="cls-17" d="M124,130.29c4.58,0,4.58,4,9.16,4s4.58-4,9.16-4,4.58,4,9.17,4,4.58-4,9.16-4,4.59,4,9.17,4,4.59-4,9.17-4"/><path class="cls-18" d="M146.41,222.31V243h5.17V217.43A5,5,0,0,0,146.41,222.31Z"/><path class="cls-19" d="M156.75,222.31a5,5,0,0,0-5.17-4.88V243h5.17Z"/><path class="cls-18" d="M143.86,204.75a15.21,15.21,0,0,0-.41,3.5c0,6.21,3.64,11.25,8.13,11.25h0V204.75Z"/><path class="cls-19" d="M159.71,208.25a15.21,15.21,0,0,0-.41-3.5h-7.72V219.5C156.07,219.5,159.71,214.46,159.71,208.25Z"/><circle class="cls-4" cx="179" cy="140.28" r="3.09"/><circle class="cls-4" cx="124.79" cy="140.28" r="3.09"/><path class="cls-10" d="M157.41,161.33h-5.83v43.42H154V164.83h3.38a1.75,1.75,0,0,0,0-3.5Z"/><path class="cls-20" d="M145.75,161.33a1.75,1.75,0,0,0,0,3.5h3.38v39.92h2.45V161.33Z"/><path class="cls-21" d="M172.52,282.08h0a2.19,2.19,0,0,0-2.69,1.57l-1.46,5.58A2.19,2.19,0,0,0,170.2,292l.68.09a2.19,2.19,0,0,0,2.47-1.88l.78-5.68A2.19,2.19,0,0,0,172.52,282.08Z"/><path class="cls-21" d="M134.9,282h0a2.19,2.19,0,0,1,2.56,1.77l1,5.68a2.19,2.19,0,0,1-2,2.58l-.68,0a2.19,2.19,0,0,1-2.32-2.07l-.33-5.72A2.19,2.19,0,0,1,134.9,282Z"/><path class="cls-21" d="M160.06,424.93h12.67a1.43,1.43,0,0,0,1.43-1.43h0a1.43,1.43,0,0,0-1.15-1.4l-13.54-2.77a1.43,1.43,0,0,0-1.72,1.4v1.9A2.31,2.31,0,0,0,160.06,424.93Z"/><line class="cls-22" x1="160.41" y1="369.07" x2="160.41" y2="420.21"/><line class="cls-23" x1="155.29" y1="330.18" x2="155.29" y2="365.98"/><path class="cls-21" d="M150.76,424.93H138.09a1.43,1.43,0,0,1-1.43-1.43h0a1.43,1.43,0,0,1,1.15-1.4l13.54-2.77a1.43,1.43,0,0,1,1.72,1.4v1.9A2.31,2.31,0,0,1,150.76,424.93Z"/><line class="cls-22" x1="150.56" y1="369.07" x2="150.56" y2="420.21"/><path class="cls-24" d="M162.44,328.82c10.8-8.88,12.47-26,8.46-38.48"/><path class="cls-24" d="M147.84,328.82c-11.57-7.87-14.78-24.73-11.92-37.55"/><path class="cls-25" d="M175,424.17v-.08a2.86,2.86,0,0,0-2.78-2.91,20,20,0,0,1-2.55-.17c-1.07-.17-2.61-1.91-3.51-2.85s-1.91-1.14-2.21-.47a4.17,4.17,0,0,1-3.38,2.19,3.54,3.54,0,0,1-3.21-1.71c-.09-.26-.24-.21-.24-.21-1,0-1,1.35-1,1.35v4.84Z"/><path class="cls-10" d="M156.1,424.17v1.06a.44.44,0,0,0,.44.44h17.58c.89-.19.87-1.22.85-1.5Z"/><path class="cls-4" d="M165.28,419.51l1.23-1.23a.31.31,0,0,0-.44-.44l-1.23,1.23a.31.31,0,0,0,.44.44"/><path class="cls-4" d="M166.16,420.39l1.23-1.23a.31.31,0,1,0-.44-.44l-1.23,1.23a.31.31,0,0,0,.44.44"/><path class="cls-4" d="M167,421.26l1.23-1.23a.31.31,0,1,0-.44-.44l-1.23,1.23a.31.31,0,1,0,.44.44"/><path class="cls-25" d="M136.32,424.17v-.08a2.86,2.86,0,0,1,2.78-2.91,20,20,0,0,0,2.55-.17c1.07-.17,2.61-1.91,3.51-2.85s1.91-1.14,2.21-.47a4.17,4.17,0,0,0,3.38,2.19,3.54,3.54,0,0,0,3.21-1.71c.09-.26.24-.21.24-.21,1,0,1,1.35,1,1.35v4.84Z"/><path class="cls-10" d="M155.19,424.17v1.06a.44.44,0,0,1-.44.44H137.17c-.89-.19-.87-1.22-.85-1.5Z"/><path class="cls-4" d="M146,419.51l-1.23-1.23a.31.31,0,0,1,.44-.44l1.23,1.23a.31.31,0,1,1-.44.44"/><path class="cls-4" d="M145.14,420.39l-1.23-1.23a.31.31,0,0,1,.44-.44l1.23,1.23a.31.31,0,0,1-.44.44"/><path class="cls-4" d="M144.26,421.26,143,420a.31.31,0,1,1,.44-.44l1.23,1.23a.31.31,0,1,1-.44.44"/><path class="cls-4" d="M168.8,292.07c3.34,11.5,1.73,26.86-7.94,34.82a2.5,2.5,0,1,0,3.18,3.86c10.95-9,13.22-25.74,10-38.68Z"/><path class="cls-4" d="M146.44,330.89a2.5,2.5,0,1,0,2.81-4.13c-10.57-7.19-13.49-22.83-10.94-34.68h-5.09C130.72,305.44,134.35,322.67,146.44,330.89Z"/><path class="cls-3" d="M168.91,294.53c2.45,11,.5,24.68-8.37,32a3,3,0,1,0,3.81,4.63c10.39-8.55,13.09-23.94,10.7-36.61Z"/><path class="cls-3" d="M146.15,331.3a3,3,0,1,0,3.37-5c-9.7-6.6-12.83-20.48-11.15-31.81h-6.06C130.67,307.63,134.65,323.48,146.15,331.3Z"/><path class="cls-26" d="M145.79,362.15V366a9.5,9.5,0,1,0,19,0v-3.83Z"/><path class="cls-3" d="M164.79,330.18a9.5,9.5,0,1,0-19,0v32h19Z"/><path class="cls-27" d="M158.8,296.75a7,7,0,0,1,3.43,3.85,3.86,3.86,0,0,0,.08-2c-.33-1.61-1.47-2.75-2.57-2.53A1.54,1.54,0,0,0,158.8,296.75Z"/><path class="cls-28" d="M157.54,315.82a2,2,0,0,0-4-.44l-.75,6.72a2,2,0,0,0,4,.44Z"/><path class="cls-21" d="M156.85,320.09l1.69-.34a7.61,7.61,0,0,0,6-9l-2-10.12a6.47,6.47,0,0,0-7.62-5.06l-4.7.95a6.47,6.47,0,0,0-5.06,7.62l1.89,9.35A8.4,8.4,0,0,0,156.85,320.09Z"/><path class="cls-29" d="M161.11,306.35a1.75,1.75,0,0,0,1.33-.27"/><path class="cls-29" d="M153.91,307.81a1.75,1.75,0,0,0,1.33-.27"/><path d="M161.5,305.69h0a.51.51,0,0,0,.4-.6l-.23-1.14a.51.51,0,0,0-1,.2l.23,1.14A.51.51,0,0,0,161.5,305.69Z"/><path d="M154.46,307.11h0a.51.51,0,0,0,.4-.6l-.23-1.14a.51.51,0,1,0-1,.2l.23,1.14A.51.51,0,0,0,154.46,307.11Z"/><path class="cls-30" d="M159.92,310.76H160a2.14,2.14,0,0,0,1.17-2.64.3.3,0,0,0-.31-.22l-1.69.1-.36-.62a9.55,9.55,0,0,1-.79-5.3.3.3,0,0,0-.6-.08,10,10,0,0,0,.86,5.68l.46.79a.3.3,0,0,0,.28.15l1.61-.09a1.48,1.48,0,0,1-.86,1.68.3.3,0,0,0,.17.57Z"/><path class="cls-27" d="M143.89,298.4a1.9,1.9,0,0,1,1.42-.6l0-.14a3.3,3.3,0,0,1,2.58-3.89l7.38-1.49,2.74-.55a3.3,3.3,0,0,1,3.88,2.58l0,.16a3.29,3.29,0,0,1-2.58,3.89l-.58.12-9.08,1.83a1.94,1.94,0,0,0-1.51,2.28l1.15,5.71a2.32,2.32,0,0,1-1.61,2.74,2.25,2.25,0,0,1-2.76-1.73l-1.73-8.56A2.57,2.57,0,0,1,143.89,298.4Z"/><circle class="cls-21" cx="145.53" cy="311.26" r="2.25" transform="translate(-58.68 34.93) rotate(-11.41)"/><circle class="cls-31" cx="145.53" cy="311.26" r="1.21" transform="translate(-158.43 151.04) rotate(-37.15)"/><path class="cls-32" d="M152.5,304.42a1.38,1.38,0,1,1,2.66-.75"/><path class="cls-32" d="M159.51,303a1.38,1.38,0,1,1,2.66-.75"/><path class="cls-33" d="M157.83,312.75v1.12a1.87,1.87,0,1,0,3.75,0v-1.12Z"/><path class="cls-26" d="M163.91,369.07a3.5,3.5,0,1,0-7,0v47h7Z"/><path class="cls-26" d="M150.56,365.57a3.5,3.5,0,0,0-3.5,3.5v47h7v-47A3.5,3.5,0,0,0,150.56,365.57Z"/><circle class="cls-26" cx="156.01" cy="326.65" r="0.84"/><circle class="cls-26" cx="156.01" cy="331.32" r="0.84"/><circle class="cls-26" cx="156.01" cy="335.99" r="0.84"/><path class="cls-27" d="M159.76,292.29l-5.45.92a1.09,1.09,0,0,1-1.26-.9h0a1.09,1.09,0,0,1,.9-1.26l5.45-.92a1.09,1.09,0,0,1,1.26.9h0A1.09,1.09,0,0,1,159.76,292.29Z"/><path class="cls-27" d="M147.89,312l-1.31-5.36a1.09,1.09,0,0,1,.8-1.32h0a1.09,1.09,0,0,1,1.32.8l1.31,5.36a1.09,1.09,0,0,1-.8,1.32h0A1.09,1.09,0,0,1,147.89,312Z"/></g></svg>